# xmcd
#
# Track frame offsets:
# 150
# 17349
# 32276
# 55166
# 74348
# 87064
# 113044
# 133683
# 148432
# 163279
# 181249
# 204671
# 220165
# 246582
# 270122
#
# Disc length: 3852 seconds
#
#
# Revision: 0
# Processed by: cddbd v1.5.1PL2 Copyright (c) Steve Scherf et al.
# Submitted via: FreeRIP 2.944 
#
DISCID=d40f0a0f
DTITLE=StingRay and Thundershuffle - StingRay and Thundershuffle
DYEAR=1900
DGENRE=Blues
TTITLE0=100 Miles Away
TTITLE1=Tell Me
TTITLE2=Get Movin'
TTITLE3=Lookin' in Your Window
TTITLE4=Winning Train
TTITLE5=Last Night
TTITLE6=Coming Home
TTITLE7=Come Hither
TTITLE8=Guitar Crazy
TTITLE9=Blues From The Soul
TTITLE10=Distant Blues
TTITLE11=Sweet Lovin' Lady
TTITLE12=Trouble
TTITLE13=Get Me Some
TTITLE14=Still Have You
EXTD=
EXTT0=
EXTT1=
EXTT2=
EXTT3=
EXTT4=
EXTT5=
EXTT6=
EXTT7=
EXTT8=
EXTT9=
EXTT10=
EXTT11=
EXTT12=
EXTT13=
EXTT14=
PLAYORDER=
